<svg width="24" height="25" viewBox="0 0 24 25" fill="none" xmlns="http://www.w3.org/2000/svg">
<path d="M12 2C13.6569 2 15 3.34315 15 5V11H9V5C9 3.34315 10.3431 2 12 2ZM16.5 11V5C16.5 2.51472 14.4853 0.5 12 0.5C9.51472 0.5 7.5 2.51472 7.5 5V11C5.84315 11 4.5 12.3431 4.5 14V21.5C4.5 23.1569 5.84315 24.5 7.5 24.5H16.5C18.1569 24.5 19.5 23.1569 19.5 21.5V14C19.5 12.3431 18.1569 11 16.5 11ZM7.5 12.5H16.5C17.3284 12.5 18 13.1716 18 14V21.5C18 22.3284 17.3284 23 16.5 23H7.5C6.67157 23 6 22.3284 6 21.5V14C6 13.1716 6.67157 12.5 7.5 12.5Z" fill="#8E8C80"/>
</svg>
