<svg width="24" height="25" viewBox="0 0 24 25" fill="none" xmlns="http://www.w3.org/2000/svg">
<path d="M12 12.5C15.3137 12.5 18 9.81371 18 6.5C18 3.18629 15.3137 0.5 12 0.5C8.68629 0.5 6 3.18629 6 6.5C6 9.81371 8.68629 12.5 12 12.5ZM16 6.5C16 8.70914 14.2091 10.5 12 10.5C9.79086 10.5 8 8.70914 8 6.5C8 4.29086 9.79086 2.5 12 2.5C14.2091 2.5 16 4.29086 16 6.5Z" fill="#8E8C80"/>
<path d="M24 22.5C24 24.5 22 24.5 22 24.5H2C2 24.5 0 24.5 0 22.5C0 20.5 2 14.5 12 14.5C22 14.5 24 20.5 24 22.5ZM22 22.493C21.9971 21.9995 21.6924 20.5209 20.3358 19.1642C19.0313 17.8597 16.5782 16.5 12 16.5C7.42176 16.5 4.96871 17.8597 3.66419 19.1642C2.30751 20.5209 2.00285 21.9995 2 22.493H22Z" fill="#8E8C80"/>
</svg>
